<?xml version="1.0" encoding="utf-8"?>
<!-- Generator: Adobe Illustrator 18.0.0, SVG Export Plug-In . SVG Version: 6.00 Build 0)  -->
<!DOCTYPE svg PUBLIC "-//W3C//DTD SVG 1.1//EN" "http://www.w3.org/Graphics/SVG/1.1/DTD/svg11.dtd">
<svg version="1.1" id="Layer_1" xmlns="http://www.w3.org/2000/svg" xmlns:xlink="http://www.w3.org/1999/xlink" x="0px" y="0px"
	 viewBox="0 0 612 792" enable-background="new 0 0 612 792" xml:space="preserve">
<g>
	<g>
		<g>
			<g>
				<path fill="#5E6A71" d="M416.2,658.1L306,735.7l-110.2-77.5c-77.5-53-144.8-100-179.5-169.3C44.9,619.4,173.4,668.3,306,772.4
					c134.6-104,261.1-153,289.7-283.6C563,558.2,495.7,605.1,416.2,658.1z"/>
				<g>
					<path fill="#981E32" d="M0,19.6v14.3c8.2,2,12.2,6.1,12.2,18.4v314.2C12.2,541.9,155,588.8,306,707.1
						c151-118.3,293.8-165.2,293.8-340.7V48.2c2-10.2,4.1-12.2,12.2-14.3V19.6H0z"/>
				</g>
			</g>
		</g>
	</g>
	<g>
		<g>
			<g>
				<path fill="#FFFFFF" d="M366.4,536.3c0,0,24.6-10.5,38.1-51.1c11.9,24.8,8.8,50.2,8.8,50.2C402.3,537.8,366.4,536.3,366.4,536.3
					z"/>
				<path fill="#FFFFFF" d="M498.4,303.8c0,0,15,81.7-38.1,84.5c-51.2,2.7-75.4-74.4-75.4-74.4s12.4,150.6,84.2,140.6
					C550.1,443.4,498.4,303.8,498.4,303.8z"/>
			</g>
		</g>
		<path fill="#FFFFFF" d="M108.4,516.8C108.4,516.8,108.5,516.8,108.4,516.8c60-13.7,105.9-83.5,119.3-111.6l8.6-17.8l5.2,19
			c0.3,1,5.8,22,5.8,49.7c0,3.1-0.1,6.2-0.3,9.4c20.7,0.8,35.4-3.4,44.6-12.9c13.1-13.6,17.1-39.4,12.2-78.8
			c-2.4-18.8-9.4-48.8-15.6-75.3c-3.2-13.5-6.1-26.3-7.9-35.4c-11.6-57.9,2.8-93.8,16.8-113.7c2.2-3.1,4.6-6.1,7.2-8.9
			c-41.5,13.9-76.2,35.6-112,71.4l25.2,29.2l10.3-9.7c9.7,36.3,2.7,69.8,2.7,69.8c-13.3-20.2-28.9-36.6-28.9-36.6l6.8-11.5
			l-22.7-26.4l-2.6-3c-28,38.4-37,69.8-37,69.8l19.8,18.1l11.6,10.5l3.9-11.1c21.4,39.9,1.9,77.2,1.9,77.2
			c-3.5-13.6-17.5-33.7-17.5-33.7l5.5-18.3l-29.5-26.7c-30.8,96-71.8,127-71.8,127s44.3-8,69-16.3
			C139,420.3,138.4,470.8,108.4,516.8z"/>
		<path fill="#FFFFFF" d="M556,171.1l-70.8,3c0,8.4-1.1,16.8-3.8,24.8c6.6,28.9,2,44.6,2,44.6c-11.9-27.6-20.9-35.2-20.9-35.2
			c-65.1-28.9-101.6,36.4-97.7,78.6c3.2,34.7,15.8,80.6,25.6,152.8c8.3,60.7-22.5,86.9-57.8,93c-0.8,0.1-11.7,1.9-24,1.1
			c-2.7-0.2-5.5-0.4-8.2-0.8c-27.5-3.8-89.1-15-152.8-16.5c37.4-21.8,66.7-59.7,83.1-86.5c0.9,7.4,1.7,16.5,1.7,26.5
			c0,5-0.2,10.2-0.7,15.5l-0.6,7.3l7.3,0.6c29.3,2.5,50.1-3,63.6-17c16.6-17.3,21.7-46.1,16.1-90.8c-2.4-19.6-9.5-50-15.8-76.8
			c-3.1-13.4-6-26.1-7.8-34.9C284,207.6,296.6,175.5,309,158c9.7-13.8,23.1-23.9,37.8-28.7c0.3,0,0.5-0.1,0.8-0.2l24.2-74.2h7.6
			l-16.2,71.3c3.8-0.6,7.6-1.3,11.4-1.8l20.9-65.8h7.5l-13.7,63.7c21.6-2.8,45.1-4.9,71.1-6.9c4.2,1.7,8.8,6.5,12.8,13.3l68.2-21
			l2.5,7.3l-65.2,25.3c0.5,1.3,1,2.7,1.4,4.1l71.3-8.8l1.2,7.6L483.5,157c0.3,1.3,0.5,2.6,0.7,3.9l71.9,2.3L556,171.1z M350.8,202.9
			c14.3-10,38.6-17.7,61.4-16c5.8,0.4,10.7-1.1,4.4-4.4c-17.1-9-56.8-5.9-70.9,3.7c-22.5,15.4-18.7,42.7-18.2,43.4
			C332,221.8,339.6,210.7,350.8,202.9z"/>
	</g>
</g>
</svg>
