<?xml version="1.0" encoding="utf-8"?>
<!-- Generator: Adobe Illustrator 18.0.0, SVG Export Plug-In . SVG Version: 6.00 Build 0)  -->
<!DOCTYPE svg PUBLIC "-//W3C//DTD SVG 1.1//EN" "http://www.w3.org/Graphics/SVG/1.1/DTD/svg11.dtd">
<svg version="1.1" id="Layer_1" xmlns="http://www.w3.org/2000/svg" xmlns:xlink="http://www.w3.org/1999/xlink" x="0px" y="0px"
	 viewBox="1.7 3.1 96.6 119.6" enable-background="new 1.7 3.1 96.6 119.6" xml:space="preserve">
<g>
	<g>
		<g>
			<g>
				<path fill="#5E6A71" d="M67.4,103.9L50,116.1l-17.4-12.2C20.4,95.5,9.8,88.1,4.3,77.2c4.5,20.6,24.8,28.3,45.7,44.7
					c21.2-16.4,41.2-24.1,45.7-44.8C90.6,88.1,79.9,95.5,67.4,103.9z"/>
				<g>
					<path fill="#981E32" d="M1.7,3.1v2.3c1.3,0.3,1.9,1,1.9,2.9v49.6c0,27.7,22.5,35.1,46.4,53.8c23.8-18.7,46.4-26.1,46.4-53.8
						V7.6C96.7,6,97,5.7,98.3,5.4V3.1H1.7z"/>
				</g>
			</g>
		</g>
	</g>
	<g>
		<g>
			<g>
				<path fill="#FFFFFF" d="M59.5,84.6c0,0,3.9-1.7,6-8.1c1.9,3.9,1.4,7.9,1.4,7.9C65.2,84.9,59.5,84.6,59.5,84.6z"/>
				<path fill="#FFFFFF" d="M80.4,47.9c0,0,2.4,12.9-6,13.3c-8.1,0.4-11.9-11.7-11.9-11.7s2,23.8,13.3,22.2
					C88.5,70,80.4,47.9,80.4,47.9z"/>
			</g>
		</g>
		<path fill="#FFFFFF" d="M18.8,81.6C18.8,81.6,18.8,81.6,18.8,81.6c9.5-2.2,16.7-13.2,18.8-17.6l1.4-2.8l0.8,3
			c0,0.2,0.9,3.5,0.9,7.8c0,0.5,0,1,0,1.5c3.3,0.1,5.6-0.5,7-2c2.1-2.1,2.7-6.2,1.9-12.4c-0.4-3-1.5-7.7-2.5-11.9
			c-0.5-2.1-1-4.2-1.2-5.6c-1.8-9.1,0.4-14.8,2.7-17.9c0.3-0.5,0.7-1,1.1-1.4c-6.5,2.2-12,5.6-17.7,11.3l4,4.6l1.6-1.5
			c1.5,5.7,0.4,11,0.4,11c-2.1-3.2-4.6-5.8-4.6-5.8l1.1-1.8L31,35.8l-0.4-0.5c-4.4,6.1-5.8,11-5.8,11l3.1,2.9l1.8,1.7l0.6-1.8
			c3.4,6.3,0.3,12.2,0.3,12.2c-0.6-2.1-2.8-5.3-2.8-5.3l0.9-2.9l-4.7-4.2c-4.9,15.2-11.3,20-11.3,20s7-1.3,10.9-2.6
			C23.6,66.3,23.5,74.3,18.8,81.6z"/>
		<path fill="#FFFFFF" d="M89.5,27l-11.2,0.5c0,1.3-0.2,2.7-0.6,3.9c1,4.6,0.3,7,0.3,7c-1.9-4.4-3.3-5.6-3.3-5.6
			c-10.3-4.6-16,5.7-15.4,12.4c0.5,5.5,2.5,12.7,4,24.1c1.3,9.6-3.6,13.7-9.1,14.7c-0.1,0-1.8,0.3-3.8,0.2c-0.4,0-0.9-0.1-1.3-0.1
			c-4.3-0.6-14.1-2.4-24.1-2.6c5.9-3.4,10.5-9.4,13.1-13.7c0.1,1.2,0.3,2.6,0.3,4.2c0,0.8,0,1.6-0.1,2.4l-0.1,1.2l1.2,0.1
			c4.6,0.4,7.9-0.5,10-2.7c2.6-2.7,3.4-7.3,2.5-14.3c-0.4-3.1-1.5-7.9-2.5-12.1c-0.5-2.1-0.9-4.1-1.2-5.5
			c-1.7-8.3,0.3-13.4,2.3-16.2c1.5-2.2,3.6-3.8,6-4.5c0,0,0.1,0,0.1,0l3.8-11.7h1.2L59,19.9c0.6-0.1,1.2-0.2,1.8-0.3l3.3-10.4h1.2
			l-2.2,10.1c3.4-0.4,7.1-0.8,11.2-1.1c0.7,0.3,1.4,1,2,2.1L87.2,17l0.4,1.2l-10.3,4c0.1,0.2,0.2,0.4,0.2,0.6l11.3-1.4l0.2,1.2
			L78,24.8c0,0.2,0.1,0.4,0.1,0.6l11.3,0.4L89.5,27z M57.1,32c2.3-1.6,6.1-2.8,9.7-2.5c0.9,0.1,1.7-0.2,0.7-0.7
			c-2.7-1.4-9-0.9-11.2,0.6c-3.6,2.4-3,6.7-2.9,6.8C54.1,35,55.3,33.3,57.1,32z"/>
	</g>
</g>
</svg>
