<?xml version="1.0" encoding="utf-8"?>
<!-- Generator: Adobe Illustrator 18.0.0, SVG Export Plug-In . SVG Version: 6.00 Build 0)  -->
<!DOCTYPE svg PUBLIC "-//W3C//DTD SVG 1.1//EN" "http://www.w3.org/Graphics/SVG/1.1/DTD/svg11.dtd">
<svg version="1.1" id="Layer_1" xmlns="http://www.w3.org/2000/svg" xmlns:xlink="http://www.w3.org/1999/xlink" x="0px" y="0px"
	 viewBox="0 0 30 36.9" enable-background="new 0 0 30 36.9" xml:space="preserve">
<g>
	<path fill="#FFFFFF" d="M20.4,31.3L15,35.1l-5.4-3.8c-3.8-2.6-7.1-4.9-8.8-8.3c1.4,6.4,7.7,8.8,14.2,13.9
		c6.6-5.1,12.8-7.5,14.2-13.9C27.6,26.4,24.3,28.7,20.4,31.3z"/>
	<g>
		<path fill="#FFFFFF" d="M16.9,8.1c-1.1,0.7-0.9,2.1-0.9,2.1c0.2-0.4,0.6-0.9,1.1-1.3c0.7-0.5,1.9-0.9,3-0.8c0.3,0,0.5-0.1,0.2-0.2
			C19.6,7.5,17.6,7.7,16.9,8.1z"/>
		<path fill="#FFFFFF" d="M0,0v0.7c0.4,0.1,0.6,0.3,0.6,0.9V17c0,8.6,7,10.9,14.4,16.7c7.4-5.8,14.4-8.1,14.4-16.7V1.4
			c0.1-0.5,0.2-0.6,0.6-0.7V0H0z M5.4,24.2c1.5-2.2,1.5-4.7,1.5-4.7c-1.2,0.4-3.4,0.8-3.4,0.8s2-1.5,3.5-6.2l1.4,1.3l-0.3,0.9
			c0,0,0.7,1,0.9,1.6c0,0,0.9-1.8-0.1-3.8l-0.2,0.5l-0.6-0.5l-1-0.9c0,0,0.4-1.5,1.8-3.4l0.1,0.1l1.1,1.3L9.9,12
			c0,0,0.8,0.8,1.4,1.8c0,0,0.3-1.6-0.1-3.4l-0.5,0.5L9.5,9.4c1.7-1.7,3.4-2.8,5.5-3.5c-0.1,0.1-0.2,0.3-0.3,0.4
			c-0.7,1-1.4,2.7-0.8,5.5c0.1,0.4,0.2,1.1,0.4,1.7c0.3,1.3,0.6,2.7,0.8,3.7c0.2,1.9,0,3.2-0.6,3.8c-0.4,0.5-1.2,0.7-2.2,0.6
			c0-0.2,0-0.3,0-0.5c0-1.3-0.3-2.4-0.3-2.4l-0.3-0.9l-0.4,0.9C10.5,20.2,8.3,23.6,5.4,24.2C5.4,24.2,5.4,24.2,5.4,24.2z M20.2,25.1
			c-0.5,0.1-2.3,0-2.3,0s1.2-0.5,1.9-2.5C20.4,23.9,20.2,25.1,20.2,25.1z M23,21.2c-3.5,0.5-4.1-6.8-4.1-6.8s1.2,3.8,3.7,3.6
			c2.6-0.1,1.9-4.1,1.9-4.1S26.9,20.7,23,21.2z M27.2,7.4l-3.5,0.1c0,0.4-0.1,0.8-0.2,1.2c0.3,1.4,0.1,2.2,0.1,2.2
			c-0.6-1.3-1-1.7-1-1.7c-3.2-1.4-4.9,1.8-4.8,3.8c0.2,1.7,0.8,3.9,1.2,7.4c0.4,3-1.1,4.2-2.8,4.5c0,0-0.1,0-0.1,0c0,0,0,0,0,0
			c-0.3,0-0.6,0.1-0.9,0c0,0,0,0,0,0c0,0-0.1,0-0.1,0c-0.1,0-0.3,0-0.4,0c-1.3-0.2-4.3-0.7-7.4-0.8c1.8-1.1,3.2-2.9,4-4.2
			c0,0.4,0.1,0.8,0.1,1.3c0,0.2,0,0.5,0,0.8l0,0.4l0.4,0c1.4,0.1,2.4-0.1,3.1-0.8c0.8-0.8,1.1-2.2,0.8-4.4c-0.1-1-0.5-2.4-0.8-3.7
			c-0.2-0.7-0.3-1.3-0.4-1.7c-0.5-2.6,0.1-4.1,0.7-5c0.5-0.7,1.1-1.2,1.8-1.4c0,0,0,0,0,0l1.2-3.6h0.4l-0.8,3.5
			c0.2,0,0.4-0.1,0.6-0.1l1-3.2h0.4L19.1,5c1.1-0.1,2.2-0.2,3.5-0.3C22.7,4.8,23,5,23.2,5.3l3.3-1l0.1,0.4l-3.2,1.2
			c0,0.1,0.1,0.1,0.1,0.2L27,5.7L27,6.1l-3.4,0.7c0,0.1,0,0.1,0,0.2L27.2,7L27.2,7.4z"/>
	</g>
</g>
</svg>
