<?xml version="1.0" encoding="utf-8"?>
<!-- Generator: Adobe Illustrator 18.0.0, SVG Export Plug-In . SVG Version: 6.00 Build 0)  -->
<!DOCTYPE svg PUBLIC "-//W3C//DTD SVG 1.1//EN" "http://www.w3.org/Graphics/SVG/1.1/DTD/svg11.dtd">
<svg version="1.1" id="Layer_1" xmlns="http://www.w3.org/2000/svg" xmlns:xlink="http://www.w3.org/1999/xlink" x="0px" y="0px"
	 viewBox="0 400.5 612 39.2" enable-background="new 0 400.5 612 39.2" xml:space="preserve">
<g>
	<path fill="#FFFFFF" d="M294,410.4c-0.4-3.5-2.3-6.4-6.4-6.4c-2.9,0-5.9,1.5-5.9,5.2c0,3.5,3.5,5.6,8.6,9.4
		c5.3,3.9,7.1,6.6,7.1,10.7c0,6.1-5.9,9.3-11.9,9.3c-3.2,0-6-0.6-8.7-1.6c-0.2-0.1-0.3-0.3-0.3-0.7V429h1.3c0.6,5.5,4.2,7.8,8.1,7.8
		c3.5,0,6.9-2.7,6.9-6.4c0-3.3-1.8-6-9.3-11c-2.7-1.8-6.1-3.8-6.1-9.3c0-4.5,4.7-8.2,10.5-8.2c2.1,0,5,0.2,7.1,1
		c0.3,0.1,0.4,0.3,0.4,0.6v6.7H294V410.4L294,410.4z"/>
	<path fill="#FFFFFF" d="M325,426.5l-1.7,4.9c-0.5,1.4,0.2,2.6,1.8,2.6v0.9h-6.8V434c1,0,2.1-0.6,2.6-1.8c1.6-3.2,6-15.3,9-23.5h2.1
		c2.5,7.5,6.3,18.8,7.6,22.1c0.8,2.1,1.4,3.2,3,3.2v0.9H334V434c2.3,0,2.5-1.2,1.9-2.8l-1.6-4.7L325,426.5L325,426.5z M333.8,425
		l-3.8-12h-0.1l-4.4,12H333.8z"/>
	<path fill="#FFFFFF" d="M363.8,434c3.3-0.4,2.9-0.2,2.9-3.7v-16.8c0-3.4,0.5-3.3-2.9-3.7v-1h16.4v6.1h-1c-0.4-2.7-1.1-4.8-3.8-4.8
		h-5v10.5h3.1c2.3,0,3.3-0.9,3.4-3.2h1v8h-1c-0.1-2.2-0.9-3.5-3.4-3.5h-3.1v8.5c0,3.2,1.4,3.4,4.8,3.4c5.4,0,5.1-1.5,6.9-5.5h1
		l-1.1,6.8h-18.2V434L363.8,434z"/>
	<g>
		<g>
			<path fill="#FFFFFF" d="M451.4,435c0,0,0,0-18.3-21.6v16.5c0,0.8,0.2,1.4,0.2,2c0.2,1.3,1.5,1.9,3.9,2v1h-9.1v-1
				c1.8-0.2,3-0.7,3.2-2c0.1-0.6,0.2-1.2,0.2-2v-17.7c-1-1.3-2.2-2.5-4.3-2.5v-1h6.9c5.5,6.8,11.4,13.7,16.9,20.5h0.1v-15.4
				c0-0.8-0.2-1.4-0.2-2c-0.2-1.3-1.4-1.8-3.9-2v-1h9.2v1c-1.7,0.2-3,0.7-3.2,2c-0.1,0.6-0.2,1.2-0.2,2V435H451.4z"/>
		</g>
		<path fill="#FFFFFF" d="M466.2,430.3c0,3.5-0.1,3.3,3.2,3.7v1h-10.1v-1c3.3-0.4,3.2-0.2,3.2-3.7v-16.8c0-3.5,0.1-3.3-3.2-3.7v-1
			h10.1v1c-3.3,0.4-3.2,0.2-3.2,3.7V430.3z"/>
		<path fill="#FFFFFF" d="M513.9,428.3c-1.7,4-1.4,5.5-6.9,5.5c-3.3,0-4.8-0.3-4.8-3.4v-8.5h3.1c2.5,0,3.3,1.3,3.4,3.5h1v-8h-1
			c-0.1,2.3-1.1,3.2-3.4,3.2h-3.1v-10.7h6c2.7,0,3.4,2,3.8,4.8h1v-6.1h-17.3h-7.5v1c2.5,0,3.5,1.1,2.6,3.5
			c-2.3,5.8-4.6,11.5-7.1,17.3c-1.9-5.6-4.1-12.1-5.5-16.5c-1.2-3.6,0.3-4.2,2.3-4.2v-1h-9.6v1c1.8,0,2.3,1.1,3.7,5.1
			c2.3,6.4,4.8,13.6,7.2,20.1h1.9c3.1-7.7,6.4-15.3,9.5-23c0.8-1.9,1.3-2.2,2.4-2.2c3.3,0.4,2.9,0.2,2.9,3.7v16.8
			c0,3.5,0.5,3.3-2.9,3.7v1h18.1l1.1-6.8h-1L513.9,428.3L513.9,428.3L513.9,428.3z"/>
		<path fill="#FFFFFF" d="M566.2,430.3c0,3.5-0.2,3.3,3.2,3.7v1h-10.1v-1c3.3-0.4,3.2-0.2,3.2-3.7v-16.8c0-3.5,0.1-3.3-3.2-3.7v-1
			h10.1v1c-3.3,0.4-3.2,0.2-3.2,3.7V430.3z"/>
		<path fill="#FFFFFF" d="M604.5,408.7v1c2.2,0,3.4,1.1,2.1,3.3l-5.1,9.4L597,413c-0.9-1.9-1.2-3.3,1.6-3.3v-1h-6.3h-2.6h-17.5
			l-1,5.8h0.9c1.2-2.5,2-4.5,5.2-4.5h3v20.4c0,3.5,0.1,3.3-3.2,3.7v1h10.1v-1c-3.4-0.4-3.2-0.2-3.2-3.7V410h3c3,0,5.1,1.8,6.4,4.1
			l5.2,10.5v5.8c0,3.5,0.1,3.3-3.2,3.7v1h10.1v-1c-3.3-0.4-3.2-0.2-3.2-3.7v-4.2c0-0.9,0.1-2,0.4-2.7l6.3-11.4c1-1.8,2-2.3,3-2.3v-1
			L604.5,408.7L604.5,408.7z"/>
		<path fill="#FFFFFF" d="M427.3,402.9h-11.8v1c2.4,0.3,4,1.3,4.3,3.1c0.1,0.8,0.3,1.6,0.3,2.7v14c0,8.1-3.6,12.7-10.5,12.7
			c-7.5,0-9.8-5.3-9.8-12.5v-14.7c0-4.6,0.1-4.7,4.6-5.3v-1h-13.5v1c4.5,0.5,4.3,0.6,4.3,5.3v15c0,9.1,3.3,14.6,14,14.6
			c6.6,0,13.4-4,13.4-14.9v-14.2c0-0.1,0-0.2,0-0.3c0-4.3,1.6-5,4.5-5.4L427.3,402.9z"/>
		<path fill="#FFFFFF" d="M551.2,421.3c-3.9-3-6.8-4.6-6.8-7.5s2.1-4.1,4.3-4.1c3.1,0,4.6,2.2,5,5h1v-5.2c0-0.2,0-0.4-0.3-0.4
			c-1.6-0.5-3.8-0.8-5.5-0.8c-4.5,0-8.6,2.8-8.6,6.4c0,1.9,0.5,3.3,1.3,4.3l0,0l0,0c1,1.3,2.3,2.1,3.4,2.9c6,3.9,7.3,6.1,7.4,8.6
			c0.1,5.8-10.6,8.8-17.8-2.2l-3.6-5.5c2.9-1.1,5.2-3.7,5.2-7.7c0-4.4-3.8-6.4-7.6-6.4h-10.9v1c3.3,0.4,3.2,0.2,3.2,3.7v16.8
			c0,3.5,0.2,3.3-3.2,3.7v1h10.1v-1c-3.4-0.4-3.2-0.2-3.2-3.7v-7h3.5c4.5,7.6,5.6,10.8,8,11.6c0.5,0.2,6.4,2,10.6,2
			c4.7,0,9.9-2.6,9.9-7.4C556.7,426.5,555.4,424.4,551.2,421.3z M528,422.6h-3.1v-12.2h2.9c2.7,0,5,1.4,5,5.5
			C532.7,420,531.3,422.6,528,422.6z"/>
	</g>
	<path fill="#FFFFFF" d="M161.1,421.6c0-5.8,4.8-13.4,15-13.4c3.6,0,5.3,0.7,7.2,1.3c1,0.3,1.4,0.8,1.4,1.4v4.8h-1
		c-0.1-3-2-6.3-8-6.3c-7.9,0-10.4,5.3-10.4,11.8c0,6,2.9,12.7,10.6,12.7c4.6,0,5.1-1.7,5.1-4.6V427c0-3.5,0.1-3.3-3.9-3.7v-1h10.8v1
		c-3.3,0.4-3.2,0.2-3.2,3.7v6.6c-2.4,0.9-5.5,1.7-9,1.7C168,435.3,161.1,431.6,161.1,421.6z"/>
	<path fill="#FFFFFF" d="M93.2,430.3c0,3.5-0.1,3.3,3.2,3.7v1h-10v-1c3.3-0.4,3.2-0.2,3.2-3.7v-16.8c0-3.5-1.6-3.3-5-3.7v-1h11.9v1
		c-3.3,0.4-3.2,0.2-3.2,3.7v6.5h13.1v-6.5c0-3.5,0.1-3.3-3.2-3.7v-1h10.1v1c-3.3,0.4-3.2,0.2-3.2,3.7v16.8c0,3.5-0.1,3.3,3.2,3.7v1
		h-10.1v-1c3.3-0.4,3.2-0.2,3.2-3.7v-8.9H93.2V430.3z"/>
	<path fill="#FFFFFF" d="M124.3,430.3c0,3.5-0.2,3.3,3.2,3.7v1h-10.1v-1c3.3-0.4,3.2-0.2,3.2-3.7v-16.8c0-3.5,0.1-3.3-3.2-3.7v-1
		h10.1v1c-3.3,0.4-3.2,0.2-3.2,3.7V430.3z"/>
	<path fill="#FFFFFF" d="M155.6,435c-6-7.1-12.1-14.4-18.3-21.6v16.5c0,0.8,0.1,1.4,0.2,2c0.2,1.3,1.4,1.9,3.9,2.1v1h-9.2v-1
		c1.8-0.2,3-0.7,3.2-2.1c0.1-0.6,0.2-1.2,0.2-2v-17.7c-1-1.3-2.2-2.5-4.3-2.5v-1h6.9c5.5,6.8,11.4,13.7,16.9,20.5h0.1v-15.4
		c0-0.8-0.2-1.4-0.2-2c-0.2-1.3-1.5-1.8-3.9-2v-1h9.2v1c-1.8,0.2-3,0.7-3.2,2c-0.1,0.6-0.2,1.2-0.2,2V435H155.6z"/>
	<path fill="#FFFFFF" d="M200.8,430.3c0,3.5-0.1,3.3,3.2,3.7v1h-10.1v-1c3.3-0.4,3.2-0.2,3.2-3.7V410h-3c-3.2,0-4,2-5.2,4.5H188
		l1-5.8h20l1,5.8h-0.9c-1.2-2.5-2-4.5-5.2-4.5h-3L200.8,430.3L200.8,430.3z"/>
	<path fill="#FFFFFF" d="M311.6,430.3c0,3.5-0.1,3.3,3.2,3.7v1h-10.1v-1c3.3-0.4,3.2-0.2,3.2-3.7V410h-3c-3.2,0-4,2-5.2,4.5h-0.9
		l1-5.8h20l1,5.8h-0.9c-1.2-2.5-2-4.5-5.2-4.5h-3L311.6,430.3L311.6,430.3z"/>
	<path fill="#FFFFFF" d="M352.9,430.3c0,3.5-0.1,3.3,3.2,3.7v1H346v-1c3.3-0.4,3.2-0.2,3.2-3.7V410h-3c-3.2,0-4,2-5.2,4.5h-0.9
		l1-5.8h20l1,5.8h-0.9c-1.2-2.5-2-4.5-5.2-4.5h-3L352.9,430.3L352.9,430.3z"/>
	<path fill="#FFFFFF" d="M210,422.4c0-8.1,6.3-14,14.1-14c8.2,0,12.8,7.1,12.8,12.8c0,7.9-6,14.3-14.2,14.3
		C215.5,435.4,210,429.7,210,422.4z M232.7,422.2c0-9-4.8-12.6-9.4-12.6c-6.4,0-9,5.6-9,10.8c0,9.1,4.6,13.7,9.5,13.7
		C230.7,434.1,232.7,427.3,232.7,422.2z"/>
	<path fill="#FFFFFF" d="M261.1,435c-6-7.1-12.1-14.4-18.3-21.6v16.5c0,0.8,0.1,1.4,0.2,2c0.2,1.3,1.4,1.9,3.9,2.1v1h-9.2v-1
		c1.8-0.2,3-0.7,3.2-2.1c0.1-0.6,0.2-1.2,0.2-2v-17.7c-1-1.3-2.2-2.5-4.3-2.5v-1h6.9c5.5,6.8,11.4,13.7,16.9,20.5h0.1v-15.4
		c0-0.8-0.1-1.4-0.2-2c-0.2-1.3-1.5-1.8-3.9-2v-1h9.2v1c-1.7,0.2-3,0.7-3.2,2c-0.1,0.6-0.2,1.2-0.2,2V435H261.1z"/>
	<path fill="#FFFFFF" d="M51.6,403.7L51.6,403.7H41.4v1.2c3.9,0,4.5,1.4,3.5,4.4l-7.6,20.9h-0.4l-9.1-26.1h-2.3L16,430.3h-0.6
		l-6.9-20.8c-1-3.3,0.4-4.5,3.4-4.5v-1.2H0v1.2c2.5,0,3,2,4.6,6.8l8.8,25.8h2.3l9.4-26.3l9.2,26.3h2.6c3.9-10.5,9.5-26,11.5-30.2
		c0.8-1.6,2.1-2.4,3.4-2.4v-1.2L51.6,403.7L51.6,403.7z"/>
	<path fill="#FFFFFF" d="M78,421c-3.9-2.9-6.7-4.6-6.7-7.4c0-2.9,2-4,4.3-4c3.1,0,4.6,2.2,4.9,4.9h1v-5.1c0-0.2,0-0.4-0.3-0.4
		c-1.6-0.5-3.8-0.7-5.4-0.7c-4.5,0-8.5,2.8-8.5,6.4c0,1.9,0.5,3.2,1.3,4.3l0,0l0,0c0.9,1.3,2.2,2.1,3.4,2.8c5.9,3.8,7.3,6,7.3,8.5
		c0,2.3-1.8,4.7-5,4.9c-3.3,0.2-7.7-1.4-9.5-6.1c-1.6-4.5-4.8-14-7.1-20.6h-2.1c-3.2,8.3-7.5,20.3-9.1,23.6
		c-0.6,1.2-1.7,1.8-2.7,1.8v1h1.6h5.1v-1c-1.6,0-2.3-1.2-1.8-2.7l1.7-4.9H60l1.6,4.8l1.2,3.7c0,0,6.7,1.7,11,1.7
		c4.7,0,9.5-2.6,9.5-7.3C83.4,426.1,82.1,424.1,78,421z M51.2,424.9l4.4-12.1h0.1l3.9,12.1H51.2z"/>
</g>
</svg>
